<svg id="Layer_1" data-name="Layer 1" xmlns="http://www.w3.org/2000/svg" xmlns:xlink="http://www.w3.org/1999/xlink" viewBox="0 0 128.7 216">
   <defs>
      <style>.cls-1{fill:url(#linear-gradient);}.cls-2{fill:url(#linear-gradient-2);}.cls-3{fill:url(#linear-gradient-3);}.cls-4{fill:url(#linear-gradient-4);}.cls-5{fill:url(#linear-gradient-5);}.cls-6{fill:url(#linear-gradient-6);}.cls-7{fill:url(#linear-gradient-7);}
      </style>
      <linearGradient id="linear-gradient" x1="30.63" y1="137.96" x2="20.88" y2="9.5" gradientTransform="matrix(1, 0, 0, -1, 0, 218)" gradientUnits="userSpaceOnUse">
         <stop offset="0.01" stop-color="#fdd8ff"/>
         <stop offset="1" stop-color="#fdb2ff"/>
      </linearGradient>
      <linearGradient id="linear-gradient-2" x1="33.42" y1="137.75" x2="23.66" y2="9.29" xlink:href="#linear-gradient"/>
      <linearGradient id="linear-gradient-3" x1="89.07" y1="176.08" x2="42.32" y2="45.59" gradientTransform="matrix(1, 0, 0, -1, 0, 218)" gradientUnits="userSpaceOnUse">
         <stop offset="0.01" stop-color="#deeaff"/>
         <stop offset="1" stop-color="#b2d8ff"/>
      </linearGradient>
      <linearGradient id="linear-gradient-4" x1="119.69" y1="165.11" x2="72.94" y2="34.62" xlink:href="#linear-gradient-3"/>
      <linearGradient id="linear-gradient-5" x1="105.1" y1="170.33" x2="58.35" y2="39.85" xlink:href="#linear-gradient-3"/>
      <linearGradient id="linear-gradient-6" x1="105.8" y1="170.08" x2="59.05" y2="39.6" xlink:href="#linear-gradient-3"/>
      <linearGradient id="linear-gradient-7" x1="105.41" y1="170.23" x2="58.66" y2="39.74" xlink:href="#linear-gradient-3"/>
   </defs>
   <title>j$</title>
   <polygon class="cls-1" points="43.95 190.65 43.95 55.95 27.9 65.1 27.9 181.35 0 197.4 0 216 43.95 190.65 43.95 190.65"/>
   <polygon class="cls-2" points="43.95 32.55 27.9 41.85 27.9 61.95 43.95 52.65 43.95 32.55"/>
   <polygon class="cls-3" points="94.35 45.3 94.35 26.7 94.35 0 78.3 9.3 78.3 9.3 78.3 36 78.3 54.6 78.3 76.2 94.35 89.85 94.35 45.3"/>
   <polygon class="cls-4" points="78.3 152.1 78.3 170.7 78.3 198.15 78.3 198.15 94.35 188.85 94.35 161.4 94.35 142.8 94.35 116.85 78.3 103.2 78.3 152.1"/>
   <polygon class="cls-5" points="97.65 24.75 97.65 43.5 128.7 25.5 128.7 6.75 97.65 24.75"/>
   <polygon class="cls-6" points="94.35 94.05 78.3 80.4 78.3 80.4 62.25 66.75 60.3 65.1 75.15 56.55 75.15 37.8 47.1 54 47.1 72.6 78.3 99 94.35 112.65 114.3 129.45 115.65 130.65 97.65 141 97.65 159.6 128.7 141.75 128.7 123 128.7 123 94.35 94.05"/>
   <polygon class="cls-7" points="47.1 188.7 75.15 172.65 75.15 153.9 47.1 170.1 47.1 188.7"/>
</svg>
