<svg id="Layer_1" data-name="Layer 1" xmlns="http://www.w3.org/2000/svg" viewBox="0 0 128.7 216"><title>j$_black</title><polygon points="43.95 190.65 43.95 55.95 27.9 65.1 27.9 181.35 0 197.4 0 216 43.95 190.65 43.95 190.65"/><polygon points="43.95 32.55 27.9 41.85 27.9 61.95 43.95 52.65 43.95 32.55"/><polygon points="94.35 45.3 94.35 26.7 94.35 0 78.3 9.3 78.3 9.3 78.3 36 78.3 54.6 78.3 76.2 94.35 89.85 94.35 45.3"/><polygon points="78.3 152.1 78.3 170.7 78.3 198.15 78.3 198.15 94.35 188.85 94.35 161.4 94.35 142.8 94.35 116.85 78.3 103.2 78.3 152.1"/><polygon points="97.65 24.75 97.65 43.5 128.7 25.5 128.7 6.75 97.65 24.75"/><polygon points="94.35 94.05 78.3 80.4 78.3 80.4 62.25 66.75 60.3 65.1 75.15 56.55 75.15 37.8 47.1 54 47.1 72.6 78.3 99 94.35 112.65 114.3 129.45 115.65 130.65 97.65 141 97.65 159.6 128.7 141.75 128.7 123 128.7 123 94.35 94.05"/><polygon points="47.1 188.7 75.15 172.65 75.15 153.9 47.1 170.1 47.1 188.7"/></svg>