<svg xmlns="http://www.w3.org/2000/svg" xmlns:xlink="http://www.w3.org/1999/xlink" xml:space="preserve" version="1.1"
  style="shape-rendering:geometricPrecision;text-rendering:geometricPrecision;image-rendering:optimizeQuality;"
  viewBox="0 0 333.33 416.66249999999997" x="0px" y="0px" fill-rule="evenodd" clip-rule="evenodd">
  <g>
    <path
      d="M204.66 52.94c5.37,1.78 10.6,3.94 15.66,6.47l30.25 -30.25c5,3.52 9.47,6.82 13.57,10.06 -13.66,13.66 -27.31,27.31 -40.96,40.97 -12.3,-7.36 -21.32,-11.08 -35.22,-14.57l-0 -41.34c-14.06,-2.05 -28.41,-2.08 -42.47,-0.07l0 41.41c-13.9,3.49 -22.92,7.2 -35.22,14.57l-29.25 -29.25c-11.34,8.56 -21.37,18.82 -29.76,30.3l28.95 28.96c-7.38,12.3 -11.12,21.34 -14.62,35.25l-41.2 -0c-2.26,14.06 -2.46,28.38 -0.46,42.46l41.62 0c3.48,13.94 7.21,22.99 14.59,35.32l-12.6 12.6c-4.52,-6.31 -11.97,-23 -14.69,-31.21l-43.05 0c-5.15,-29.56 -4.96,-46.43 0.71,-75.89l42.39 0c1.8,-5.38 3.97,-10.63 6.52,-15.7l-29.85 -29.85c16.91,-24.63 28.84,-36.82 53.26,-54.06l30.28 30.29c5.06,-2.53 10.3,-4.69 15.67,-6.47l0 -42.85c29.67,-5.17 46.57,-5.04 75.89,0.09l0 42.76zm75.85 75.79l42.35 0c5.63,29.44 5.83,46.35 0.69,75.89l-42.98 0c-1.79,5.4 -3.96,10.67 -6.5,15.75l30.22 30.22c-17.19,24.3 -29.34,36.51 -53.79,53.53l-30.06 -30.06c-5.1,2.56 -10.38,4.74 -15.78,6.54l0 42.49c-29.44,5.29 -46.45,5.27 -75.89,0l0 -42.49c-5.41,-1.8 -10.69,-3.98 -15.79,-6.54l-30.06 30.06c-4.8,-3.34 -9.13,-6.5 -13.11,-9.59 12.45,-14.25 26.98,-27.9 40.33,-41.25 12.34,7.41 21.39,11.14 35.34,14.64l0 41.13c14.07,2.09 28.4,2.09 42.46,0l0 -41.13 4.01 -1c11.88,-2.99 20.95,-7.43 31.33,-13.64l29.1 29.09c11.4,-8.47 21.54,-18.63 30.08,-29.97l-29.17 -29.17c7.38,-12.33 11.11,-21.38 14.59,-35.31l41.55 -0c1.99,-14.09 1.8,-28.42 -0.45,-42.47l-41.14 -0c-3.5,-13.87 -7.32,-23.07 -14.62,-35.24l11.2 -11.2c7.95,9.7 12.15,17.89 16.09,29.73zm-117.64 -15.23c48.67,-3.5 76.78,55.86 41.6,91.04 -20.86,20.86 -54.67,20.86 -75.53,0 -32.65,-32.65 -10.94,-87.83 33.93,-91.04zm-22.11 79.22c14.33,14.33 37.57,14.33 51.9,0 23.81,-23.81 5.46,-64.01 -27.52,-62.62 -31.38,1.34 -47.19,39.82 -24.39,62.62z" />
  </g>
</svg>